<svg width="242" height="242" viewBox="0 0 242 242" fill="none" xmlns="http://www.w3.org/2000/svg">
<circle cx="121" cy="121" r="121" fill="#2DB4AB" fill-opacity="0.9"/>
<path d="M186 84.0655C186 88.3059 185.44 92.3963 184.32 96.3368C183.242 100.235 181.691 103.897 179.666 107.323C177.641 110.707 175.228 113.812 172.427 116.639C169.626 119.423 166.502 121.822 163.055 123.835C159.608 125.848 155.902 127.411 151.938 128.525C148.017 129.596 143.923 130.131 139.657 130.131H111.735V38H139.657C143.923 38 148.017 38.5568 151.938 39.6704C155.902 40.7412 159.608 42.2832 163.055 44.2963C166.502 46.3094 169.626 48.7293 172.427 51.5562C175.228 54.3403 177.641 57.4456 179.666 60.8721C181.691 64.2559 183.242 67.918 184.32 71.8585C185.44 75.7562 186 79.8252 186 84.0655ZM167.45 84.0655C167.45 80.2535 166.717 76.6771 165.252 73.3362C163.83 69.9953 161.848 67.0827 159.306 64.5985C156.807 62.0714 153.855 60.0798 150.451 58.6235C147.09 57.1672 143.492 56.4391 139.657 56.4391H130.414V111.692H139.657C143.492 111.692 147.09 110.985 150.451 109.572C153.855 108.116 156.807 106.145 159.306 103.661C161.848 101.134 163.83 98.2 165.252 94.8591C166.717 91.4754 167.45 87.8776 167.45 84.0655Z" fill="white"/>
<path d="M56 157.934C56 162.175 56.5602 166.265 57.6805 170.206C58.7577 174.103 60.309 177.766 62.3342 181.192C64.3594 184.576 66.7724 187.681 69.5732 190.508C72.374 193.292 75.498 195.691 78.9452 197.704C82.3923 199.717 86.098 201.28 90.0623 202.394C93.9834 203.465 98.0769 204 102.343 204H130.265V111.869H102.343C98.0769 111.869 93.9834 112.426 90.0623 113.539C86.098 114.61 82.3923 116.152 78.9452 118.165C75.498 120.178 72.374 122.598 69.5732 125.425C66.7724 128.209 64.3594 131.315 62.3342 134.741C60.309 138.125 58.7577 141.787 57.6805 145.727C56.5602 149.625 56 153.694 56 157.934ZM74.55 157.934C74.55 154.122 75.2826 150.546 76.7476 147.205C78.1696 143.864 80.1517 140.952 82.694 138.467C85.1932 135.94 88.1448 133.949 91.5489 132.492C94.9098 131.036 98.5078 130.308 102.343 130.308H111.585V185.561H102.343C98.5078 185.561 94.9098 184.854 91.5489 183.441C88.1448 181.984 85.1932 180.014 82.694 177.53C80.1517 175.003 78.1696 172.069 76.7476 168.728C75.2826 165.344 74.55 161.747 74.55 157.934Z" fill="white"/>
</svg>
