<svg width="27" height="34" viewBox="0 0 27 34" fill="none" xmlns="http://www.w3.org/2000/svg">
<path d="M26.4822 9.38254C26.4822 10.2462 26.368 11.0793 26.1398 11.8819C25.9204 12.6758 25.6044 13.4217 25.1918 14.1196C24.7793 14.8088 24.2877 15.4413 23.7172 16.017C23.1466 16.5841 22.5102 17.0726 21.808 17.4827C21.1058 17.8927 20.3509 18.2111 19.5434 18.4379C18.7446 18.656 17.9107 18.7651 17.0417 18.7651H11.3538V0H17.0417C17.9107 0 18.7446 0.113411 19.5434 0.340231C20.3509 0.558329 21.1058 0.872388 21.808 1.28241C22.5102 1.69243 23.1466 2.18533 23.7172 2.76111C24.2877 3.32816 24.7793 3.96064 25.1918 4.65855C25.6044 5.34774 25.9204 6.09363 26.1398 6.89623C26.368 7.6901 26.4822 8.51887 26.4822 9.38254ZM22.7033 9.38254C22.7033 8.60611 22.5541 7.87767 22.2557 7.1972C21.966 6.51674 21.5622 5.92352 21.0444 5.41753C20.5352 4.90282 19.934 4.49716 19.2405 4.20055C18.5559 3.90394 17.8229 3.75563 17.0417 3.75563H15.1589V15.0094H17.0417C17.8229 15.0094 18.5559 14.8655 19.2405 14.5776C19.934 14.281 20.5352 13.8797 21.0444 13.3737C21.5622 12.859 21.966 12.2614 22.2557 11.581C22.5541 10.8918 22.7033 10.159 22.7033 9.38254Z" fill="#4E5061"/>
<path d="M0 24.428C0 25.2917 0.11411 26.1248 0.342331 26.9274C0.561774 27.7213 0.877772 28.4672 1.29033 29.1651C1.70288 29.8543 2.19443 30.4868 2.76498 31.0625C3.33553 31.6296 3.97192 32.1181 4.67414 32.5281C5.37635 32.9382 6.13124 33.2566 6.93879 33.4834C7.73756 33.7015 8.57144 33.8106 9.44044 33.8106H15.1284V15.0455H9.44044C8.57144 15.0455 7.73756 15.1589 6.93879 15.3857C6.13124 15.6038 5.37635 15.9179 4.67414 16.3279C3.97192 16.7379 3.33553 17.2308 2.76498 17.8066C2.19443 18.3736 1.70288 19.0061 1.29033 19.704C0.877772 20.3932 0.561774 21.1391 0.342331 21.9417C0.11411 22.7356 0 23.5644 0 24.428ZM3.77881 24.428C3.77881 23.6516 3.92803 22.9232 4.22647 22.2427C4.51614 21.5622 4.91991 20.969 5.4378 20.463C5.94691 19.9483 6.54818 19.5426 7.24162 19.246C7.92628 18.9494 8.65922 18.8011 9.44044 18.8011H11.3233V30.0549H9.44044C8.65922 30.0549 7.92628 29.911 7.24162 29.6231C6.54818 29.3265 5.94691 28.9252 5.4378 28.4192C4.91991 27.9045 4.51614 27.3069 4.22647 26.6264C3.92803 25.9373 3.77881 25.2044 3.77881 24.428Z" fill="#4E5061"/>
</svg>
